<svg width="23" height="25" viewBox="0 0 23 25" fill="none" xmlns="http://www.w3.org/2000/svg">
<path d="M11.5051 6.4355C8.2399 6.4355 5.60619 9.14077 5.60619 12.4947C5.60619 15.8486 8.2399 18.5539 11.5051 18.5539C14.7703 18.5539 17.404 15.8486 17.404 12.4947C17.404 9.14077 14.7703 6.4355 11.5051 6.4355ZM11.5051 16.4339C9.39503 16.4339 7.67003 14.6673 7.67003 12.4947C7.67003 10.322 9.3899 8.55542 11.5051 8.55542C13.6203 8.55542 15.3401 10.322 15.3401 12.4947C15.3401 14.6673 13.6151 16.4339 11.5051 16.4339ZM19.0211 6.18765C19.0211 6.97339 18.4051 7.60093 17.6453 7.60093C16.8803 7.60093 16.2694 6.96812 16.2694 6.18765C16.2694 5.40718 16.8854 4.77436 17.6453 4.77436C18.4051 4.77436 19.0211 5.40718 19.0211 6.18765ZM22.9281 7.62202C22.8408 5.72886 22.4198 4.0519 21.0696 2.67026C19.7245 1.28862 18.0919 0.856201 16.2488 0.761279C14.3493 0.650537 8.65575 0.650537 6.75619 0.761279C4.91825 0.850928 3.28566 1.28335 1.93544 2.66499C0.585212 4.04663 0.169364 5.72358 0.0769531 7.61675C-0.0308594 9.56792 -0.0308594 15.4162 0.0769531 17.3673C0.16423 19.2605 0.585212 20.9375 1.93544 22.3191C3.28566 23.7007 4.91311 24.1332 6.75619 24.2281C8.65575 24.3388 14.3493 24.3388 16.2488 24.2281C18.0919 24.1384 19.7245 23.706 21.0696 22.3191C22.4147 20.9375 22.8357 19.2605 22.9281 17.3673C23.0359 15.4162 23.0359 9.57319 22.9281 7.62202ZM20.4741 19.4609C20.0736 20.4945 19.2984 21.2908 18.287 21.7074C16.7725 22.3244 13.1787 22.182 11.5051 22.182C9.83142 22.182 6.23253 22.3191 4.72316 21.7074C3.71691 21.296 2.94169 20.4998 2.5361 19.4609C1.93544 17.9052 2.07405 14.2138 2.07405 12.4947C2.07405 10.7755 1.94057 7.07886 2.5361 5.52847C2.93655 4.49487 3.71177 3.69858 4.72316 3.28198C6.23767 2.66499 9.83142 2.80737 11.5051 2.80737C13.1787 2.80737 16.7776 2.67026 18.287 3.28198C19.2932 3.69331 20.0685 4.4896 20.4741 5.52847C21.0747 7.08413 20.9361 10.7755 20.9361 12.4947C20.9361 14.2138 21.0747 17.9105 20.4741 19.4609Z" fill="white"/>
</svg>
