<svg width="21" height="21" viewBox="0 0 21 21" fill="none" xmlns="http://www.w3.org/2000/svg">
<path d="M4.70062 20.1245H0.346875V6.68842H4.70062V20.1245ZM2.52141 4.85561C1.12922 4.85561 0 3.75053 0 2.41635C9.96468e-09 1.77549 0.265647 1.16088 0.738503 0.707732C1.21136 0.254579 1.85269 0 2.52141 0C3.19012 0 3.83145 0.254579 4.30431 0.707732C4.77716 1.16088 5.04281 1.77549 5.04281 2.41635C5.04281 3.75053 3.91313 4.85561 2.52141 4.85561ZM20.9953 20.1245H16.6509V13.5839C16.6509 12.0251 16.6181 10.0261 14.3873 10.0261C12.1237 10.0261 11.7769 11.7197 11.7769 13.4716V20.1245H7.42781V6.68842H11.6034V8.52123H11.6644C12.2456 7.46557 13.6655 6.3515 15.7838 6.3515C20.19 6.3515 21 9.13217 21 12.7439V20.1245H20.9953Z" fill="white"/>
</svg>
