<svg width="570" height="570" viewBox="0 0 570 570" fill="none" xmlns="http://www.w3.org/2000/svg">
<g clip-path="url(#clip0_17_529)">
<path d="M302.99 42.3832C302.99 59.0222 296.091 74.0518 285.005 84.7664C273.909 74.0587 267.013 59.0291 267.013 42.3832C267.013 25.7372 273.912 10.7042 285.005 0C296.091 10.7146 302.99 25.7476 302.99 42.3832Z" fill="white"/>
<path d="M239.583 45.994C243.888 62.0642 241.116 78.3702 233.18 91.5892C219.694 84.1178 209.139 71.3844 204.831 55.3073C200.523 39.2267 203.294 22.9242 211.241 9.71216C224.724 17.194 235.275 29.9239 239.583 45.994Z" fill="white"/>
<path d="M179.27 65.8935C187.588 80.3022 189.132 96.7678 184.886 111.593C169.926 107.867 156.436 98.3009 148.111 83.8853C139.787 69.4697 138.247 53.0006 142.503 38.1826C157.459 41.9183 170.952 51.4848 179.27 65.8935Z" fill="white"/>
<path d="M126.165 100.725C137.931 112.491 143.682 127.996 143.418 143.414C128.004 143.688 112.495 137.937 100.726 126.168C88.9571 114.399 83.206 98.8905 83.4801 83.476C98.8947 83.2123 114.403 88.9633 126.169 100.729L126.165 100.725Z" fill="white"/>
<path d="M83.8824 148.114C98.2912 156.432 107.861 169.925 111.597 184.881C96.7788 189.137 80.3097 187.594 65.894 179.273C51.4782 170.948 41.9082 157.458 38.1864 142.498C53.0079 138.256 69.4736 139.796 83.8824 148.114Z" fill="white"/>
<path d="M55.3077 204.829C71.3779 209.134 84.1113 219.689 91.5932 233.172C78.3811 241.118 62.075 243.89 45.9978 239.582C29.9171 235.274 17.1837 224.719 9.7157 211.233C22.9347 203.296 39.2409 200.525 55.3111 204.829H55.3077Z" fill="white"/>
<path d="M42.3834 267.012C59.0226 267.012 74.0522 273.911 84.7669 284.997C74.0592 296.093 59.0295 302.988 42.3834 302.988C25.7374 302.988 10.7043 296.089 0 284.997C10.7147 273.911 25.7478 267.012 42.3834 267.012Z" fill="white"/>
<path d="M45.9943 330.418C62.0646 326.114 78.3707 328.885 91.5897 336.821C84.1217 350.307 71.3848 360.862 55.3076 365.171C39.2304 369.479 22.9243 366.707 9.71222 358.761C17.1941 345.278 29.9241 334.726 45.9943 330.418Z" fill="white"/>
<path d="M65.894 390.727C80.3028 382.409 96.7685 380.866 111.593 385.112C107.868 400.072 98.3016 413.565 83.8859 421.886C69.4702 430.211 53.001 431.751 38.1829 427.495C41.9187 412.538 51.4852 399.045 65.894 390.727Z" fill="white"/>
<path d="M100.726 443.835C112.492 432.07 127.997 426.319 143.415 426.582C143.689 441.997 137.938 457.505 126.169 469.274C114.4 481.043 98.8912 486.794 83.4766 486.52C83.2129 471.106 88.964 455.597 100.73 443.832L100.726 443.835Z" fill="white"/>
<path d="M148.115 486.115C156.433 471.706 169.922 462.136 184.883 458.4C189.139 473.218 187.595 489.687 179.274 504.103C170.949 518.519 157.459 528.089 142.499 531.81C138.257 516.989 139.797 500.523 148.115 486.115Z" fill="white"/>
<path d="M204.831 514.693C209.135 498.622 219.691 485.889 233.173 478.407C241.12 491.619 243.891 507.925 239.583 524.006C235.275 540.086 224.72 552.82 211.234 560.288C203.298 547.069 200.526 530.763 204.831 514.693Z" fill="white"/>
<path d="M267.01 527.613C267.01 510.974 273.909 495.945 284.995 485.23C296.091 495.938 302.987 510.967 302.987 527.613C302.987 544.259 296.088 559.292 284.995 569.996C273.909 559.282 267.01 544.249 267.01 527.613Z" fill="white"/>
<path d="M330.417 524.002C326.112 507.932 328.884 491.626 336.82 478.407C350.306 485.879 360.861 498.612 365.169 514.689C369.477 530.77 366.706 547.072 358.759 560.284C345.277 552.802 334.725 540.069 330.417 523.999V524.002Z" fill="white"/>
<path d="M390.73 504.103C382.412 489.694 380.868 473.229 385.114 458.404C400.074 462.129 413.564 471.696 421.889 486.111C430.213 500.527 431.753 516.996 427.497 531.814C412.541 528.078 399.048 518.508 390.73 504.1V504.103Z" fill="white"/>
<path d="M443.835 469.274C432.069 457.509 426.318 442.004 426.582 426.586C441.996 426.312 457.505 432.063 469.274 443.832C481.043 455.601 486.794 471.109 486.52 486.524C471.105 486.788 455.597 481.037 443.831 469.271L443.835 469.274Z" fill="white"/>
<path d="M486.118 421.886C471.709 413.568 462.139 400.075 458.403 385.119C473.221 380.863 489.69 382.406 504.106 390.727C518.522 399.052 528.092 412.542 531.814 427.502C516.992 431.744 500.526 430.204 486.118 421.886Z" fill="white"/>
<path d="M514.692 365.167C498.622 360.863 485.889 350.308 478.407 336.825C491.619 328.878 507.925 326.107 524.002 330.415C540.083 334.723 552.816 345.278 560.284 358.764C547.065 366.7 530.759 369.472 514.689 365.167H514.692Z" fill="white"/>
<path d="M527.617 302.988C510.977 302.988 495.948 296.089 485.233 285.004C495.941 273.907 510.97 267.012 527.617 267.012C544.263 267.012 559.296 273.911 570 285.004C559.285 296.089 544.252 302.988 527.617 302.988Z" fill="white"/>
<path d="M524.006 239.582C507.935 243.886 491.629 241.115 478.41 233.179C485.878 219.693 498.615 209.138 514.692 204.83C530.773 200.522 547.076 203.293 560.288 211.24C552.806 224.722 540.073 235.274 524.002 239.582H524.006Z" fill="white"/>
<path d="M504.106 179.269C489.697 187.587 473.232 189.13 458.407 184.885C462.132 169.925 471.698 156.432 486.114 148.11C500.53 139.786 516.999 138.246 531.817 142.502C528.081 157.458 518.511 170.951 504.103 179.269H504.106Z" fill="white"/>
<path d="M469.277 126.165C457.512 137.93 442.007 143.681 426.589 143.417C426.315 128.003 432.066 112.495 443.835 100.726C455.604 88.9565 471.112 83.2055 486.527 83.4796C486.791 98.8942 481.04 114.402 469.274 126.168L469.277 126.165Z" fill="white"/>
<path d="M421.889 83.8818C413.571 98.2905 400.081 107.86 385.121 111.596C380.865 96.7781 382.408 80.3091 390.73 65.8935C399.055 51.4778 412.544 41.9079 427.504 38.186C431.747 53.0075 430.206 69.4731 421.889 83.8818Z" fill="white"/>
<path d="M365.169 55.3073C360.865 71.3775 350.309 84.1108 336.827 91.5926C328.88 78.3806 326.109 62.0746 330.417 45.994C334.725 29.9135 345.28 17.1801 358.766 9.71216C366.702 22.9311 369.474 39.2371 365.169 55.3073Z" fill="white"/>
</g>
<defs>
<clipPath id="clip0_17_529">
<rect width="570" height="570" fill="white"/>
</clipPath>
</defs>
</svg>
