<svg width="539" height="539" viewBox="0 0 539 539" fill="none" xmlns="http://www.w3.org/2000/svg">
<path d="M284.534 0H254.551V80.2158H284.534V0Z" fill="#D0D0CE" fill-opacity="0.3"/>
<path d="M214.274 5.29317L185.313 13.0532L206.075 90.5357L235.036 82.7757L214.274 5.29317Z" fill="#D0D0CE" fill-opacity="0.3"/>
<path d="M147.771 28.5905L121.805 43.5818L161.913 113.051L187.878 98.0595L147.771 28.5905Z" fill="#D0D0CE" fill-opacity="0.3"/>
<path d="M89.5654 68.3048L68.3645 89.5056L125.086 146.227L146.286 125.026L89.5654 68.3048Z" fill="#D0D0CE" fill-opacity="0.3"/>
<path d="M43.6233 121.732L28.6321 147.697L98.101 187.805L113.092 161.84L43.6233 121.732Z" fill="#D0D0CE" fill-opacity="0.3"/>
<path d="M13.0757 185.227L5.31567 214.188L82.7982 234.949L90.5582 205.988L13.0757 185.227Z" fill="#D0D0CE" fill-opacity="0.3"/>
<path d="M0 254.466L0 284.449H80.2158V254.466H0Z" fill="#D0D0CE" fill-opacity="0.3"/>
<path d="M5.29317 324.73L13.0532 353.691L90.5358 332.93L82.7757 303.969L5.29317 324.73Z" fill="#D0D0CE" fill-opacity="0.3"/>
<path d="M28.5888 391.231L43.5801 417.197L113.049 377.089L98.0577 351.123L28.5888 391.231Z" fill="#D0D0CE" fill-opacity="0.3"/>
<path d="M68.3045 449.435L89.5054 470.636L146.227 413.915L125.026 392.714L68.3045 449.435Z" fill="#D0D0CE" fill-opacity="0.3"/>
<path d="M121.727 495.377L147.693 510.368L187.801 440.899L161.835 425.908L121.727 495.377Z" fill="#D0D0CE" fill-opacity="0.3"/>
<path d="M185.225 525.926L214.186 533.686L234.948 456.203L205.987 448.443L185.225 525.926Z" fill="#D0D0CE" fill-opacity="0.3"/>
<path d="M254.466 539H284.448V458.784H254.466V539Z" fill="#D0D0CE" fill-opacity="0.3"/>
<path d="M324.73 533.71L353.691 525.95L332.93 448.467L303.969 456.227L324.73 533.71Z" fill="#D0D0CE" fill-opacity="0.3"/>
<path d="M391.228 510.412L417.194 495.42L377.086 425.951L351.12 440.943L391.228 510.412Z" fill="#D0D0CE" fill-opacity="0.3"/>
<path d="M449.438 470.698L470.639 449.497L413.918 392.776L392.717 413.977L449.438 470.698Z" fill="#D0D0CE" fill-opacity="0.3"/>
<path d="M495.377 417.27L510.368 391.304L440.899 351.196L425.908 377.162L495.377 417.27Z" fill="#D0D0CE" fill-opacity="0.3"/>
<path d="M525.927 353.774L533.688 324.813L456.205 304.052L448.445 333.013L525.927 353.774Z" fill="#D0D0CE" fill-opacity="0.3"/>
<path d="M539 284.534V254.552H458.784V284.534H539Z" fill="#D0D0CE" fill-opacity="0.3"/>
<path d="M533.711 214.272L525.951 185.312L448.468 206.073L456.228 235.034L533.711 214.272Z" fill="#D0D0CE" fill-opacity="0.3"/>
<path d="M510.41 147.769L495.418 121.803L425.95 161.911L440.941 187.877L510.41 147.769Z" fill="#D0D0CE" fill-opacity="0.3"/>
<path d="M470.698 89.5656L449.497 68.3647L392.776 125.086L413.977 146.287L470.698 89.5656Z" fill="#D0D0CE" fill-opacity="0.3"/>
<path d="M417.273 43.6219L391.308 28.6306L351.2 98.0995L377.166 113.091L417.273 43.6219Z" fill="#D0D0CE" fill-opacity="0.3"/>
<path d="M353.774 13.0728L324.813 5.31274L304.052 82.7953L333.013 90.5553L353.774 13.0728Z" fill="#D0D0CE" fill-opacity="0.3"/>
</svg>
