<svg width="650" height="650" viewBox="0 0 650 650" fill="none" xmlns="http://www.w3.org/2000/svg">
<path d="M343.13 0H306.973V96.7352H343.13V0Z" fill="white"/>
<path d="M258.402 6.38308L223.477 15.7412L248.513 109.18L283.439 99.8221L258.402 6.38308Z" fill="white"/>
<path d="M178.202 34.4784L146.889 52.5569L195.256 136.332L226.569 118.254L178.202 34.4784Z" fill="white"/>
<path d="M108.01 82.3713L82.4434 107.938L150.845 176.34L176.412 150.773L108.01 82.3713Z" fill="white"/>
<path d="M52.6068 146.801L34.5283 178.114L118.303 226.481L136.382 195.168L52.6068 146.801Z" fill="white"/>
<path d="M15.7683 223.372L6.41016 258.297L99.8492 283.334L109.207 248.409L15.7683 223.372Z" fill="white"/>
<path d="M0 306.87L0 343.027H96.7352V306.87H0Z" fill="white"/>
<path d="M6.38308 391.604L15.7412 426.529L109.18 401.492L99.8221 366.567L6.38308 391.604Z" fill="white"/>
<path d="M34.4762 471.8L52.5547 503.113L136.33 454.745L118.251 423.432L34.4762 471.8Z" fill="white"/>
<path d="M82.3716 541.99L107.938 567.557L176.341 499.155L150.774 473.588L82.3716 541.99Z" fill="white"/>
<path d="M146.795 597.393L178.108 615.471L226.476 531.696L195.163 513.618L146.795 597.393Z" fill="white"/>
<path d="M223.37 634.234L258.295 643.592L283.332 550.153L248.407 540.795L223.37 634.234Z" fill="white"/>
<path d="M306.869 650H343.026V553.265H306.869V650Z" fill="white"/>
<path d="M391.604 643.62L426.529 634.262L401.492 540.823L366.567 550.181L391.604 643.62Z" fill="white"/>
<path d="M471.796 615.524L503.109 597.446L454.742 513.671L423.429 531.749L471.796 615.524Z" fill="white"/>
<path d="M541.994 567.632L567.561 542.065L499.158 473.663L473.592 499.23L541.994 567.632Z" fill="white"/>
<path d="M597.393 503.201L615.472 471.888L531.697 423.521L513.618 454.834L597.393 503.201Z" fill="white"/>
<path d="M634.236 426.63L643.594 391.705L550.155 366.668L540.797 401.593L634.236 426.63Z" fill="white"/>
<path d="M650 343.13V306.973H553.265V343.13H650Z" fill="white"/>
<path d="M643.622 258.399L634.264 223.474L540.825 248.511L550.183 283.436L643.622 258.399Z" fill="white"/>
<path d="M615.522 178.2L597.443 146.887L513.668 195.255L531.747 226.568L615.522 178.2Z" fill="white"/>
<path d="M567.631 108.011L542.064 82.4436L473.662 150.846L499.229 176.413L567.631 108.011Z" fill="white"/>
<path d="M503.205 52.6051L471.893 34.5266L423.525 118.302L454.838 136.38L503.205 52.6051Z" fill="white"/>
<path d="M426.63 15.7649L391.705 6.40674L366.668 99.8458L401.593 109.204L426.63 15.7649Z" fill="white"/>
</svg>
