<svg width="151" height="69" viewBox="0 0 151 69" fill="none" xmlns="http://www.w3.org/2000/svg">
<path d="M147.741 21.0623C145.152 14.9567 140.85 9.78155 135.431 6.11587C132.721 4.28324 129.727 2.82836 126.531 1.83185C123.334 0.835339 119.934 0.299229 116.43 0.299636C111.398 0.295158 106.646 1.36331 102.309 3.14262C98.5078 4.69886 95.0086 6.78184 91.737 9.16647C86.0139 13.3463 80.9492 18.4449 76.1127 23.6603C75.9556 23.83 75.8017 24.001 75.645 24.1715C75.6112 24.1345 75.5774 24.097 75.5437 24.06C72.8322 21.1214 70.0458 18.2181 67.1185 15.4846C62.7262 11.3895 58.0151 7.65542 52.6858 4.86861C50.0227 3.47805 47.2029 2.33255 44.2223 1.53673C41.2434 0.740496 38.1053 0.299226 34.8568 0.30004C30.1853 0.299226 25.6993 1.25381 21.6307 2.97898C15.525 5.56755 10.3499 9.86948 6.68423 15.2888C4.85159 17.9987 3.39671 20.9923 2.4002 24.189C1.40369 27.3854 0.867574 30.786 0.867981 34.2893C0.867167 38.9609 1.82176 43.4468 3.54693 47.5155C6.1355 53.6203 10.4378 58.7954 15.8568 62.4611C18.5667 64.2938 21.5603 65.7486 24.757 66.7451C27.9533 67.7416 31.354 68.2778 34.8572 68.2774C39.8895 68.2814 44.6416 67.2137 48.9786 65.4344C52.7798 63.8781 56.279 61.7951 59.5506 59.4105C65.2736 55.2307 70.3384 50.1321 75.1749 44.9167C75.332 44.747 75.4859 44.576 75.6426 44.4059C75.6764 44.4429 75.7101 44.4803 75.7439 44.5174C78.4554 47.456 81.2418 50.3593 84.1691 53.0928C88.5614 57.1879 93.2724 60.922 98.6018 63.7088C101.265 65.0985 104.085 66.2448 107.065 67.0407C110.044 67.8369 113.182 68.2782 116.431 68.2774C121.102 68.2782 125.588 67.3232 129.657 65.5984C135.763 63.0098 140.938 58.7079 144.603 53.2886C146.436 50.5787 147.891 47.5851 148.887 44.3884C149.884 41.192 150.42 37.7913 150.42 34.2885C150.42 29.6169 149.466 25.131 147.741 21.0623ZM65.5521 35.2988C62.9651 38.1032 60.4006 40.767 57.8417 43.1549C54.0047 46.7425 50.1819 49.686 46.3961 51.6562C44.5016 52.6446 42.6185 53.3973 40.7158 53.9053C38.8115 54.4129 36.8869 54.6807 34.8577 54.6816C32.0322 54.6807 29.3707 54.1104 26.9352 53.0801C23.2846 51.5353 20.1514 48.9349 17.9475 45.6735C16.8451 44.0432 15.9752 42.2516 15.3805 40.3433C14.7858 38.4341 14.4642 36.4085 14.4642 34.2889C14.465 31.4634 15.0353 28.802 16.0656 26.3669C17.6104 22.7167 20.2108 19.583 23.4727 17.3791C25.1026 16.2768 26.8945 15.4069 28.8037 14.8122C30.7128 14.2174 32.7384 13.8958 34.8581 13.8958C37.9958 13.8999 40.899 14.5317 43.8316 15.7264C46.3908 16.7722 48.9574 18.2674 51.5419 20.1525C56.0669 23.4441 60.6094 27.9333 65.2004 32.8983C65.6233 33.3551 66.0491 33.8257 66.4733 34.2897C66.1668 34.6243 65.8586 34.9671 65.5521 35.2988ZM135.223 42.2113C133.678 45.8619 131.078 48.9952 127.816 51.1991C126.186 52.3014 124.394 53.1713 122.485 53.7661C120.576 54.3608 118.55 54.6824 116.431 54.6824C113.293 54.6783 110.39 54.0465 107.457 52.8518C104.898 51.806 102.331 50.3108 99.7469 48.4257C95.2219 45.1341 90.6794 40.6449 86.0884 35.6799C85.6655 35.2231 85.2397 34.7522 84.8155 34.2885C85.1225 33.9527 85.4306 33.6099 85.7367 33.2786C88.3237 30.4742 90.8882 27.8103 93.4471 25.4225C97.2841 21.8349 101.107 18.8914 104.893 16.9212C106.787 15.9328 108.67 15.1801 110.573 14.6721C112.477 14.1645 114.402 13.8966 116.431 13.8958C119.257 13.8966 121.918 14.467 124.354 15.4973C128.004 17.0421 131.137 19.6425 133.341 22.9043C134.444 24.5346 135.314 26.3262 135.908 28.2345C136.503 30.1437 136.825 32.1693 136.825 34.2889C136.824 37.114 136.254 39.7754 135.223 42.2113Z" fill="#15A7C7"/>
</svg>
