<svg width="129" height="57" viewBox="0 0 129 57" fill="none" xmlns="http://www.w3.org/2000/svg">
<g clip-path="url(#clip0_1376_132)">
<path d="M63.8193 6.4462C49.9376 6.4462 38.6903 17.764 38.6903 31.7207C38.6903 45.6774 49.9376 57.0005 63.8193 57.0005C77.7009 57.0005 88.9477 45.6828 88.9477 31.7207C88.9477 17.7586 77.6951 6.4462 63.8193 6.4462ZM63.7753 49.5545C54.0076 49.5545 46.0876 41.5892 46.0876 31.7644C46.0876 21.9397 54.0071 13.9743 63.7753 13.9743C73.5434 13.9743 81.4629 21.9397 81.4629 31.7644C81.4629 41.5892 73.5429 49.5545 63.7753 49.5545ZM115.525 7.70729L115.64 7.55158C117.941 4.42793 115.724 0 111.859 0L106.977 9.74955H111.493C113.083 9.74955 114.579 8.99183 115.525 7.70729ZM24.4084 26.3036L19.4027 39.4573H18.2634L13.3202 26.3036L8.50849 14.4494H0L14.6451 49.0997C19.7176 49.0997 24.2976 46.0469 26.2741 41.3481L37.5887 14.4494H29.2201L24.4084 26.3036ZM124.97 19.3594C121.807 15.6193 117.205 13.7477 111.161 13.7477C105.814 13.7477 101.502 15.4082 98.2249 18.7281C94.9469 22.0495 93.3082 26.398 93.3082 31.7746C93.3082 37.3404 95.0047 41.7822 98.3993 45.1021C101.793 48.4225 106.325 50.0824 111.998 50.0824C114.927 50.0824 117.705 49.5444 120.332 48.4689C122.958 47.3939 125.132 45.9206 126.852 44.05L122.896 40.1878L117.856 42.0157C116.043 42.6711 114.16 42.9979 112.207 42.9979C109.185 42.9979 106.698 42.2504 104.745 40.7536C102.792 39.2574 101.653 37.246 101.328 34.7212H128.875C129.433 28.2222 128.131 23.1011 124.97 19.3594ZM101.398 28.6184C101.909 26.0477 103.025 24.0598 104.745 22.6563C106.465 21.2534 108.673 20.5517 111.37 20.5517C114.205 20.5517 116.519 21.2774 118.309 22.7262C120.099 24.1766 121.134 26.1399 121.413 28.6184H101.398Z" fill="#1E22AA"/>
</g>
<defs>
<clipPath id="clip0_1376_132">
<rect width="129" height="57" fill="white"/>
</clipPath>
</defs>
</svg>
