<svg width="406" height="406" viewBox="0 0 406 406" fill="none" xmlns="http://www.w3.org/2000/svg">
<g clip-path="url(#clip0_35_554)">
<path d="M215.814 30.1887C215.814 42.0404 210.9 52.7457 203.004 60.3775C195.1 52.7506 190.188 42.0453 190.188 30.1887C190.188 18.3321 195.103 7.62439 203.004 0C210.9 7.6318 215.814 18.3395 215.814 30.1887Z" fill="white" fill-opacity="0.3"/>
<path d="M170.651 32.7606C173.717 44.2071 171.743 55.8215 166.09 65.2371C156.484 59.9154 148.966 50.8457 145.897 39.3943C142.828 27.9404 144.803 16.3284 150.463 6.91772C160.066 12.2469 167.582 21.3141 170.651 32.7606Z" fill="white" fill-opacity="0.3"/>
<path d="M127.691 46.9347C133.615 57.1977 134.715 68.9259 131.691 79.4854C121.035 76.8319 111.427 70.0179 105.497 59.7499C99.5674 49.4819 98.4704 37.7513 101.502 27.1968C112.155 29.8577 121.766 36.6717 127.691 46.9347Z" fill="white" fill-opacity="0.3"/>
<path d="M89.8651 71.7448C98.2456 80.1252 102.342 91.169 102.154 102.151C91.1746 102.346 80.1283 98.2498 71.7453 89.8669C63.3624 81.4841 59.2661 70.4378 59.4612 59.4583C70.4408 59.2706 81.4871 63.3669 89.8676 71.7473L89.8651 71.7448Z" fill="white" fill-opacity="0.3"/>
<path d="M59.7479 105.499C70.0109 111.423 76.8275 121.034 79.4884 131.688C68.9337 134.719 57.2031 133.62 46.935 127.692C36.667 121.763 29.8505 112.155 27.1995 101.499C37.7566 98.4772 49.4848 99.5742 59.7479 105.499Z" fill="white" fill-opacity="0.3"/>
<path d="M39.3947 145.896C50.8412 148.962 59.911 156.48 65.2402 166.084C55.8295 171.744 44.2149 173.718 32.7634 170.649C21.3095 167.581 12.2397 160.063 6.92041 150.457C16.3361 144.804 27.9506 142.83 39.3972 145.896H39.3947Z" fill="white" fill-opacity="0.3"/>
<path d="M30.1889 190.187C42.0406 190.187 52.746 195.101 60.3778 202.998C52.7509 210.901 42.0456 215.813 30.1889 215.813C18.3322 215.813 7.62444 210.899 0 202.998C7.63185 195.101 18.3397 190.187 30.1889 190.187Z" fill="white" fill-opacity="0.3"/>
<path d="M32.7608 235.35C44.2073 232.284 55.8218 234.258 65.2375 239.911C59.9182 249.517 50.8459 257.035 39.3945 260.104C27.943 263.172 16.3284 261.198 6.91772 255.538C12.2469 245.935 21.3142 238.419 32.7608 235.35Z" fill="white" fill-opacity="0.3"/>
<path d="M46.9351 278.307C57.1982 272.383 68.9264 271.283 79.4859 274.307C76.8325 284.963 70.0184 294.574 59.7504 300.501C49.4823 306.431 37.7517 307.528 27.197 304.496C29.8579 293.843 36.672 284.232 46.9351 278.307Z" fill="white" fill-opacity="0.3"/>
<path d="M71.7454 316.135C80.1258 307.755 91.1696 303.659 102.152 303.847C102.347 314.826 98.2505 325.872 89.8676 334.255C81.4847 342.638 70.4384 346.734 59.4588 346.539C59.271 335.56 63.3674 324.513 71.7478 316.133L71.7454 316.135Z" fill="white" fill-opacity="0.3"/>
<path d="M105.499 346.25C111.424 335.987 121.032 329.171 131.688 326.51C134.72 337.064 133.62 348.795 127.693 359.063C121.764 369.331 112.155 376.147 101.499 378.798C98.4777 368.241 99.5746 356.513 105.499 346.25Z" fill="white" fill-opacity="0.3"/>
<path d="M145.897 366.606C148.963 355.159 156.481 346.089 166.085 340.76C171.745 350.171 173.719 361.785 170.651 373.239C167.582 384.693 160.064 393.763 150.458 399.082C144.805 389.667 142.831 378.052 145.897 366.606Z" fill="white" fill-opacity="0.3"/>
<path d="M190.186 375.809C190.186 363.957 195.1 353.252 202.996 345.62C210.9 353.247 215.812 363.952 215.812 375.809C215.812 387.665 210.898 398.373 202.996 405.998C195.1 398.366 190.186 387.658 190.186 375.809Z" fill="white" fill-opacity="0.3"/>
<path d="M235.349 373.237C232.283 361.79 234.257 350.176 239.91 340.76C249.516 346.082 257.034 355.152 260.103 366.603C263.171 378.057 261.197 389.669 255.537 399.08C245.934 393.751 238.418 384.681 235.349 373.234V373.237Z" fill="white" fill-opacity="0.3"/>
<path d="M278.309 359.063C272.385 348.8 271.285 337.072 274.309 326.512C284.965 329.166 294.574 335.98 300.503 346.248C306.433 356.516 307.53 368.246 304.498 378.801C293.845 376.14 284.234 369.323 278.309 359.06V359.063Z" fill="white" fill-opacity="0.3"/>
<path d="M316.135 334.255C307.755 325.875 303.658 314.831 303.846 303.849C314.826 303.654 325.872 307.75 334.255 316.133C342.638 324.516 346.734 335.562 346.539 346.542C335.559 346.729 324.513 342.633 316.133 334.253L316.135 334.255Z" fill="white" fill-opacity="0.3"/>
<path d="M346.252 300.501C335.989 294.577 329.173 284.966 326.512 274.313C337.066 271.281 348.797 272.381 359.065 278.308C369.333 284.237 376.15 293.845 378.801 304.501C368.244 307.523 356.515 306.426 346.252 300.501Z" fill="white" fill-opacity="0.3"/>
<path d="M366.606 260.101C355.159 257.035 346.089 249.517 340.76 239.914C350.171 234.253 361.785 232.279 373.237 235.348C384.691 238.416 393.76 245.935 399.08 255.54C389.664 261.193 378.05 263.167 366.603 260.101H366.606Z" fill="white" fill-opacity="0.3"/>
<path d="M375.811 215.813C363.959 215.813 353.254 210.899 345.622 203.002C353.249 195.099 363.954 190.187 375.811 190.187C387.668 190.187 398.375 195.101 406 203.002C398.368 210.899 387.66 215.813 375.811 215.813Z" fill="white" fill-opacity="0.3"/>
<path d="M373.239 170.649C361.793 173.715 350.178 171.741 340.762 166.089C346.082 156.483 355.154 148.965 366.606 145.896C378.059 142.828 389.672 144.802 399.082 150.462C393.753 160.065 384.683 167.581 373.237 170.649H373.239Z" fill="white" fill-opacity="0.3"/>
<path d="M359.065 127.69C348.802 133.615 337.074 134.714 326.514 131.69C329.168 121.034 335.982 111.423 346.25 105.496C356.518 99.5667 368.248 98.4697 378.803 101.501C376.142 112.155 369.326 121.765 359.063 127.69H359.065Z" fill="white" fill-opacity="0.3"/>
<path d="M334.257 89.8644C325.877 98.2448 314.833 102.341 303.851 102.153C303.656 91.1739 307.752 80.1276 316.135 71.7448C324.518 63.3619 335.564 59.2656 346.544 59.4608C346.732 70.4403 342.635 81.4865 334.255 89.8669L334.257 89.8644Z" fill="white" fill-opacity="0.3"/>
<path d="M300.503 59.7474C294.579 70.0104 284.97 76.8269 274.314 79.4878C271.283 68.9332 272.382 57.2026 278.309 46.9347C284.239 36.6667 293.847 29.8502 304.503 27.1992C307.525 37.7563 306.428 49.4844 300.503 59.7474Z" fill="white" fill-opacity="0.3"/>
<path d="M260.103 39.3943C257.037 50.8407 249.519 59.9104 239.915 65.2396C234.255 55.829 232.281 44.2145 235.349 32.7606C238.418 21.3067 245.936 12.237 255.542 6.91772C261.195 16.3333 263.169 27.9478 260.103 39.3943Z" fill="white" fill-opacity="0.3"/>
</g>
<defs>
<clipPath id="clip0_35_554">
<rect width="406" height="406" fill="white"/>
</clipPath>
</defs>
</svg>
