<svg width="446" height="445" viewBox="0 0 446 445" fill="none" xmlns="http://www.w3.org/2000/svg">
<path d="M116.185 362.982L82.5464 396.624C115.17 423.007 155.378 440.391 199.393 445V397.496C168.403 393.322 139.953 381.092 116.185 362.982ZM48.0711 246.381H0.573116C5.25522 290.438 22.7082 330.684 49.1624 363.31L82.801 329.669C64.5844 305.899 52.282 277.409 48.0738 246.381H48.0711ZM82.2215 48.6284L115.86 82.2696C139.701 64.0163 168.259 51.6778 199.396 47.5045V0C155.234 4.60935 114.918 22.1016 82.2215 48.6284ZM0.5 199.201H48.0007C52.1006 168.1 64.3678 139.502 82.5112 115.659L48.8727 82.0177C22.4536 114.716 5.07107 155.071 0.5 199.201ZM397.092 82.0556L363.454 115.697C381.635 139.54 393.861 168.1 397.999 199.201H445.5C440.929 155.071 423.546 114.754 397.092 82.0556ZM246.569 0V47.5045C277.705 51.6778 306.299 64.0163 330.14 82.2696L363.779 48.6284C331.085 22.1016 290.733 4.60935 246.569 0ZM329.815 362.982C306.047 381.092 277.559 393.322 246.569 397.496V445C290.587 440.391 330.831 423.007 363.454 396.624L329.815 362.982ZM397.929 246.381C393.718 277.409 381.38 305.861 363.164 329.631L396.84 363.272C423.295 330.646 440.747 290.435 445.43 246.378L397.929 246.381Z" fill="white" fill-opacity="0.5"/>
</svg>
