<svg width="250" height="250" viewBox="0 0 250 250" fill="none" xmlns="http://www.w3.org/2000/svg">
<path d="M131.973 0H118.066V37.2058H131.973V0Z" fill="#FFD700"/>
<path d="M99.3844 2.45516L85.9517 6.05444L95.5812 41.9925L109.014 38.3933L99.3844 2.45516Z" fill="#FFD700"/>
<path d="M68.5385 13.2608L56.4951 20.2141L75.098 52.4353L87.1415 45.482L68.5385 13.2608Z" fill="#FFD700"/>
<path d="M41.5424 31.6812L31.709 41.5146L58.0175 67.8232L67.8509 57.9897L41.5424 31.6812Z" fill="#FFD700"/>
<path d="M20.234 56.4619L13.2808 68.5054L45.502 87.1083L52.4552 75.0649L20.234 56.4619Z" fill="#FFD700"/>
<path d="M6.0651 85.9123L2.46582 99.345L38.4039 108.975L42.0032 95.5419L6.0651 85.9123Z" fill="#FFD700"/>
<path d="M0 118.027L0 131.934H37.2059V118.027H0Z" fill="#FFD700"/>
<path d="M2.45541 150.617L6.05469 164.05L41.9928 154.42L38.3935 140.987L2.45541 150.617Z" fill="#FFD700"/>
<path d="M13.2601 181.461L20.2134 193.505L52.4346 174.902L45.4813 162.859L13.2601 181.461Z" fill="#FFD700"/>
<path d="M31.6812 208.458L41.5146 218.291L67.8232 191.983L57.9897 182.149L31.6812 208.458Z" fill="#FFD700"/>
<path d="M56.46 229.766L68.5034 236.72L87.1063 204.499L75.0629 197.545L56.46 229.766Z" fill="#FFD700"/>
<path d="M85.9118 243.936L99.3445 247.535L108.974 211.597L95.5414 207.998L85.9118 243.936Z" fill="#FFD700"/>
<path d="M118.027 250H131.934V212.794H118.027V250Z" fill="#FFD700"/>
<path d="M150.617 247.546L164.05 243.947L154.42 208.009L140.988 211.608L150.617 247.546Z" fill="#FFD700"/>
<path d="M181.46 236.74L193.503 229.787L174.9 197.566L162.857 204.519L181.46 236.74Z" fill="#FFD700"/>
<path d="M208.459 218.32L218.292 208.487L191.984 182.178L182.151 192.012L208.459 218.32Z" fill="#FFD700"/>
<path d="M229.767 193.539L236.72 181.496L204.499 162.893L197.546 174.936L229.767 193.539Z" fill="#FFD700"/>
<path d="M243.936 164.088L247.536 150.656L211.598 141.026L207.998 154.459L243.936 164.088Z" fill="#FFD700"/>
<path d="M250 131.973V118.066H212.794V131.973H250Z" fill="#FFD700"/>
<path d="M247.547 99.3844L243.948 85.9517L208.009 95.5812L211.609 109.014L247.547 99.3844Z" fill="#FFD700"/>
<path d="M236.739 68.5385L229.786 56.4951L197.565 75.098L204.518 87.1415L236.739 68.5385Z" fill="#FFD700"/>
<path d="M218.32 41.5424L208.486 31.709L182.178 58.0175L192.011 67.8509L218.32 41.5424Z" fill="#FFD700"/>
<path d="M193.54 20.2328L181.497 13.2795L162.894 45.5008L174.938 52.454L193.54 20.2328Z" fill="#FFD700"/>
<path d="M164.088 6.06339L150.656 2.46411L141.026 38.4022L154.459 42.0015L164.088 6.06339Z" fill="#FFD700"/>
</svg>
