<svg width="244" height="244" viewBox="0 0 244 244" fill="none" xmlns="http://www.w3.org/2000/svg">
<g clip-path="url(#clip0_832_1576)">
<path d="M129.701 18.143C129.701 25.2656 126.748 31.6994 122.002 36.286C117.252 31.7023 114.3 25.2686 114.3 18.143C114.3 11.0173 117.254 4.58215 122.002 0C126.748 4.5866 129.701 11.0218 129.701 18.143Z" fill="#00B388"/>
<path d="M102.559 19.6887C104.401 26.5678 103.215 33.5479 99.8176 39.2066C94.0446 36.0083 89.5262 30.5575 87.6821 23.6754C85.8379 16.7918 87.0243 9.81314 90.426 4.15747C96.1976 7.36022 100.714 12.8095 102.559 19.6887Z" fill="#00B388"/>
<path d="M76.7401 28.2072C80.3007 34.3751 80.9614 41.4235 79.144 47.7696C72.7399 46.1749 66.9655 42.0798 63.4019 35.9089C59.8383 29.738 59.179 22.6881 61.0009 16.345C67.4035 17.9441 73.1794 22.0392 76.7401 28.2072Z" fill="#00B388"/>
<path d="M54.0077 43.1177C59.0443 48.1542 61.5061 54.7913 61.3932 61.3913C54.7947 61.5086 48.156 59.0468 43.118 54.0088C38.08 48.9708 35.6181 42.3322 35.7354 35.7337C42.334 35.6208 48.9727 38.0827 54.0092 43.1192L54.0077 43.1177Z" fill="#00B388"/>
<path d="M35.9078 63.4033C42.0757 66.9639 46.1724 72.7398 47.7715 79.1423C41.4284 80.9642 34.3784 80.3035 28.2075 76.7414C22.0365 73.1778 17.9399 67.4034 16.3467 60.9994C22.6913 59.1834 29.7398 59.8427 35.9078 63.4033Z" fill="#00B388"/>
<path d="M23.6757 87.6814C30.5549 89.5241 36.0057 94.0424 39.2085 99.8139C33.5528 103.216 26.5726 104.402 19.6905 102.558C12.8068 100.714 7.35601 96.1954 4.15918 90.4224C9.81785 87.0252 16.798 85.8388 23.6772 87.6814H23.6757Z" fill="#00B388"/>
<path d="M18.1431 114.3C25.2658 114.3 31.6996 117.253 36.2862 121.999C31.7025 126.749 25.2688 129.7 18.1431 129.7C11.0174 129.7 4.58217 126.747 0 121.999C4.58663 117.253 11.0219 114.3 18.1431 114.3Z" fill="#00B388"/>
<path d="M19.689 141.442C26.5682 139.6 33.5484 140.786 39.207 144.183C36.0102 149.956 30.5579 154.474 23.6758 156.319C16.7936 158.163 9.81342 156.976 4.15771 153.575C7.36049 147.803 12.8098 143.286 19.689 141.442Z" fill="#00B388"/>
<path d="M28.207 167.259C34.375 163.698 41.4234 163.037 47.7696 164.855C46.1749 171.259 42.0797 177.035 35.9088 180.597C29.7379 184.16 22.6879 184.82 16.3447 182.998C17.9439 176.595 22.039 170.819 28.207 167.259Z" fill="#00B388"/>
<path d="M43.1177 189.993C48.1543 184.956 54.7914 182.494 61.3915 182.607C61.5088 189.206 59.0469 195.844 54.0089 200.882C48.9709 205.92 42.3323 208.382 35.7337 208.265C35.6208 201.666 38.0827 195.028 43.1192 189.991L43.1177 189.993Z" fill="#00B388"/>
<path d="M63.4035 208.091C66.9642 201.923 72.7386 197.827 79.1427 196.228C80.9646 202.571 80.3038 209.621 76.7417 215.791C73.1782 221.962 67.4037 226.059 60.9996 227.652C59.1837 221.308 59.8429 214.259 63.4035 208.091Z" fill="#00B388"/>
<path d="M87.6822 220.325C89.5249 213.446 94.0432 207.995 99.8147 204.792C103.216 210.448 104.403 217.428 102.559 224.311C100.715 231.195 96.1962 236.646 90.4232 239.843C87.0259 234.184 85.8395 227.204 87.6822 220.325Z" fill="#00B388"/>
<path d="M114.299 225.856C114.299 218.733 117.252 212.299 121.998 207.713C126.748 212.296 129.699 218.73 129.699 225.856C129.699 232.981 126.746 239.416 121.998 243.999C117.252 239.412 114.299 232.977 114.299 225.856Z" fill="#00B388"/>
<path d="M141.441 224.31C139.599 217.431 140.785 210.451 144.182 204.792C149.955 207.99 154.474 213.441 156.318 220.323C158.162 227.207 156.976 234.185 153.574 239.841C147.802 236.638 143.286 231.188 141.441 224.308V224.31Z" fill="#00B388"/>
<path d="M167.26 215.791C163.699 209.624 163.038 202.575 164.856 196.229C171.26 197.824 177.034 201.919 180.598 208.09C184.161 214.261 184.821 221.311 182.999 227.654C176.596 226.055 170.82 221.958 167.26 215.79V215.791Z" fill="#00B388"/>
<path d="M189.992 200.882C184.956 195.846 182.494 189.209 182.607 182.609C189.205 182.491 195.844 184.953 200.882 189.991C205.92 195.029 208.382 201.668 208.265 208.266C201.666 208.379 195.027 205.917 189.991 200.881L189.992 200.882Z" fill="#00B388"/>
<path d="M208.092 180.597C201.924 177.036 197.828 171.26 196.229 164.858C202.572 163.036 209.622 163.697 215.793 167.259C221.964 170.822 226.06 176.597 227.653 183.001C221.309 184.817 214.26 184.157 208.092 180.597Z" fill="#00B388"/>
<path d="M220.324 156.317C213.445 154.474 207.994 149.956 204.792 144.185C210.447 140.783 217.427 139.596 224.31 141.441C231.193 143.285 236.644 147.803 239.841 153.576C234.182 156.973 227.202 158.16 220.323 156.317H220.324Z" fill="#00B388"/>
<path d="M225.857 129.7C218.734 129.7 212.3 126.747 207.714 122.002C212.298 117.252 218.731 114.3 225.857 114.3C232.983 114.3 239.418 117.253 244 122.002C239.413 126.747 232.978 129.7 225.857 129.7Z" fill="#00B388"/>
<path d="M224.311 102.558C217.432 104.4 210.452 103.214 204.793 99.8167C207.99 94.0438 213.442 89.5255 220.324 87.6813C227.208 85.8372 234.187 87.0236 239.842 90.4253C236.64 96.1968 231.189 100.714 224.31 102.558H224.311Z" fill="#00B388"/>
<path d="M215.793 76.7397C209.625 80.3003 202.576 80.961 196.23 79.1436C197.825 72.7396 201.92 66.9637 208.091 63.4016C214.262 59.838 221.312 59.1788 227.655 61.0007C226.056 67.4032 221.959 73.1791 215.791 76.7397H215.793Z" fill="#00B388"/>
<path d="M200.884 54.0074C195.847 59.0439 189.21 61.5057 182.61 61.3928C182.493 54.7943 184.954 48.1557 189.993 43.1177C195.031 38.0797 201.669 35.6179 208.268 35.7352C208.381 42.3337 205.919 48.9723 200.882 54.0088L200.884 54.0074Z" fill="#00B388"/>
<path d="M180.598 35.9074C177.037 42.0753 171.263 46.172 164.859 47.7711C163.037 41.428 163.698 34.3781 167.26 28.2072C170.823 22.0363 176.598 17.9396 183.002 16.3464C184.818 22.6911 184.159 29.7395 180.598 35.9074Z" fill="#00B388"/>
<path d="M156.318 23.6754C154.475 30.5545 149.957 36.0053 144.185 39.2081C140.784 33.5524 139.597 26.5723 141.441 19.6887C143.286 12.805 147.804 7.35428 153.577 4.15747C156.974 9.81611 158.16 16.7962 156.318 23.6754Z" fill="#00B388"/>
<path d="M129.701 18.143C129.701 25.2656 126.748 31.6994 122.002 36.286C117.252 31.7023 114.3 25.2686 114.3 18.143C114.3 11.0173 117.254 4.58215 122.002 0C126.748 4.5866 129.701 11.0218 129.701 18.143Z" fill="#00B388"/>
</g>
<defs>
<clipPath id="clip0_832_1576">
<rect width="244" height="244" fill="white"/>
</clipPath>
</defs>
</svg>
