<svg width="196" height="195" viewBox="0 0 196 195" fill="none" xmlns="http://www.w3.org/2000/svg">
<g clip-path="url(#clip0_1_34)">
<mask id="mask0_1_34" style="mask-type:luminance" maskUnits="userSpaceOnUse" x="0" y="0" width="196" height="195">
<path d="M196 0H0V195H196V0Z" fill="white"/>
</mask>
<g mask="url(#mask0_1_34)">
<path d="M182.032 111.396C189.747 111.396 196 105.175 196 97.5C196 89.8253 189.747 83.6038 182.032 83.6038C174.318 83.6038 168.065 89.8253 168.065 97.5C168.065 105.175 174.318 111.396 182.032 111.396Z" fill="#E8E8F1"/>
<path d="M13.9675 111.396C21.6816 111.396 27.935 105.175 27.935 97.5C27.935 89.8253 21.6816 83.6038 13.9675 83.6038C6.25347 83.6038 0 89.8253 0 97.5C0 105.175 6.25347 111.396 13.9675 111.396Z" fill="#E8E8F1"/>
<path d="M98.3573 27.7925C106.071 27.7925 112.325 21.5709 112.325 13.8963C112.325 6.22157 106.071 0 98.3573 0C90.6432 0 84.3898 6.22157 84.3898 13.8963C84.3898 21.5709 90.6432 27.7925 98.3573 27.7925Z" fill="#E8E8F1"/>
<path d="M98.3573 195C106.071 195 112.325 188.778 112.325 181.104C112.325 173.429 106.071 167.207 98.3573 167.207C90.6432 167.207 84.3898 173.429 84.3898 181.104C84.3898 188.778 90.6432 195 98.3573 195Z" fill="#E8E8F1"/>
<path d="M157.589 170.52C165.303 170.52 171.557 164.298 171.557 156.624C171.557 148.949 165.303 142.727 157.589 142.727C149.875 142.727 143.622 148.949 143.622 156.624C143.622 164.298 149.875 170.52 157.589 170.52Z" fill="#E8E8F1"/>
<path d="M38.7679 52.2887C46.482 52.2887 52.7355 46.0672 52.7355 38.3925C52.7355 30.7178 46.482 24.4962 38.7679 24.4962C31.0539 24.4962 24.8004 30.7178 24.8004 38.3925C24.8004 46.0672 31.0539 52.2887 38.7679 52.2887Z" fill="#E8E8F1"/>
<path d="M157.589 52.2887C165.303 52.2887 171.557 46.0672 171.557 38.3925C171.557 30.7178 165.303 24.4962 157.589 24.4962C149.875 24.4962 143.622 30.7178 143.622 38.3925C143.622 46.0672 149.875 52.2887 157.589 52.2887Z" fill="#E8E8F1"/>
<path d="M38.7679 170.52C46.482 170.52 52.7355 164.298 52.7355 156.624C52.7355 148.949 46.482 142.727 38.7679 142.727C31.0539 142.727 24.8004 148.949 24.8004 156.624C24.8004 164.298 31.0539 170.52 38.7679 170.52Z" fill="#E8E8F1"/>
</g>
</g>
<defs>
<clipPath id="clip0_1_34">
<rect width="196" height="195" fill="white"/>
</clipPath>
</defs>
</svg>
