<svg width="199" height="200" viewBox="0 0 199 200" fill="none" xmlns="http://www.w3.org/2000/svg">
<g clip-path="url(#clip0_1_82)">
<mask id="mask0_1_82" style="mask-type:luminance" maskUnits="userSpaceOnUse" x="0" y="0" width="199" height="200">
<path d="M199 0H0V200H199V0Z" fill="white"/>
</mask>
<g mask="url(#mask0_1_82)">
<path d="M98.8301 168.027C136.368 168.027 166.799 137.443 166.799 99.7161C166.799 61.9893 136.368 31.4056 98.8301 31.4056C61.2919 31.4056 30.8612 61.9893 30.8612 99.7161C30.8612 137.443 61.2919 168.027 98.8301 168.027Z" stroke="white" stroke-opacity="0.3" stroke-width="1.5" stroke-miterlimit="10"/>
<path d="M98.9593 174.175C139.849 174.175 172.997 140.86 172.997 99.7648C172.997 58.6693 139.849 25.3549 98.9593 25.3549C58.0693 25.3549 24.9214 58.6693 24.9214 99.7648C24.9214 140.86 58.0693 174.175 98.9593 174.175Z" stroke="white" stroke-opacity="0.3" stroke-width="1.5" stroke-miterlimit="10"/>
<path d="M99.0884 180.323C143.321 180.323 179.179 144.285 179.179 99.8297C179.179 55.3745 143.321 19.3365 99.0884 19.3365C54.8555 19.3365 18.9977 55.3745 18.9977 99.8297C18.9977 144.285 54.8555 180.323 99.0884 180.323Z" stroke="white" stroke-opacity="0.3" stroke-width="1.5" stroke-miterlimit="10"/>
<path d="M99.2337 186.471C146.818 186.471 185.393 147.702 185.393 99.8783C185.393 52.0546 146.818 13.2857 99.2337 13.2857C51.6491 13.2857 13.0741 52.0546 13.0741 99.8783C13.0741 147.702 51.6491 186.471 99.2337 186.471Z" stroke="white" stroke-opacity="0.3" stroke-width="1.5" stroke-miterlimit="10"/>
<path d="M99.3628 192.635C150.299 192.635 191.591 151.136 191.591 99.9432C191.591 48.7508 150.299 7.25119 99.3628 7.25119C48.4264 7.25119 7.13428 48.7508 7.13428 99.9432C7.13428 151.136 48.4264 192.635 99.3628 192.635Z" stroke="white" stroke-opacity="0.3" stroke-width="1.5" stroke-miterlimit="10"/>
<path d="M99.5081 198.8C153.796 198.8 197.806 154.569 197.806 100.008C197.806 45.4471 153.796 1.21664 99.5081 1.21664C45.2199 1.21664 1.21057 45.4471 1.21057 100.008C1.21057 154.569 45.2199 198.8 99.5081 198.8Z" stroke="white" stroke-opacity="0.3" stroke-width="1.5" stroke-miterlimit="10"/>
</g>
</g>
<defs>
<clipPath id="clip0_1_82">
<rect width="199" height="200" fill="white"/>
</clipPath>
</defs>
</svg>
