<svg width="200" height="210" viewBox="0 0 200 210" fill="none" xmlns="http://www.w3.org/2000/svg">
<g clip-path="url(#clip0_1_4)">
<mask id="mask0_1_4" style="mask-type:luminance" maskUnits="userSpaceOnUse" x="0" y="0" width="200" height="210">
<path d="M200 0H0V209.668H200V0Z" fill="white"/>
</mask>
<g mask="url(#mask0_1_4)">
<path d="M106.313 15.5884C106.313 21.7045 103.892 27.2413 100.008 31.1768C96.1079 27.2413 93.7028 21.7045 93.7028 15.5884C93.7028 9.47229 96.1241 3.93543 100.008 0C103.892 3.93543 106.313 9.47229 106.313 15.5884Z" fill="#E8E8F1"/>
<path d="M84.066 16.9172C85.5773 22.8289 84.6023 28.8257 81.8234 33.6811C77.0943 30.9382 73.3891 26.2532 71.8778 20.3415C70.3665 14.4299 71.3415 8.43304 74.1204 3.57764C78.8494 6.33755 82.5546 11.0055 84.066 16.9172Z" fill="#E8E8F1"/>
<path d="M62.9073 24.2429C65.8325 29.5413 66.3687 35.6063 64.8737 41.058C59.6246 39.695 54.8956 36.1685 51.9704 30.8701C49.0453 25.5718 48.509 19.5068 50.0041 14.0551C55.2531 15.4351 59.9821 18.9446 62.9073 24.2429Z" fill="#E8E8F1"/>
<path d="M44.2675 37.0543C48.3952 41.3816 50.4103 47.0888 50.3291 52.762C44.9175 52.8642 39.4734 50.7517 35.3457 46.4244C31.218 42.0971 29.2029 36.3899 29.3004 30.7168C34.7119 30.6145 40.156 32.7441 44.2837 37.0714L44.2675 37.0543Z" fill="#E8E8F1"/>
<path d="M29.4304 54.4827C34.4844 57.5493 37.8484 62.5069 39.1484 68.0097C33.9482 69.5771 28.1628 69.0148 23.1088 65.9483C18.0548 62.8817 14.6908 57.9241 13.3907 52.4213C18.591 50.8539 24.3764 51.4332 29.4304 54.4827Z" fill="#E8E8F1"/>
<path d="M19.4036 75.3354C25.0427 76.9198 29.5117 80.8041 32.1281 85.7617C27.4966 88.692 21.7763 89.6971 16.1372 88.1127C10.4981 86.5283 6.02912 82.644 3.41272 77.6864C8.04423 74.7732 13.7646 73.751 19.4036 75.3354Z" fill="#E8E8F1"/>
<path d="M14.8696 98.2154C20.7037 98.2154 25.9852 100.754 29.7392 104.826C25.9852 108.914 20.7037 111.436 14.8696 111.436C9.03551 111.436 3.75396 108.897 0 104.826C3.75396 100.754 9.03551 98.2154 14.8696 98.2154Z" fill="#E8E8F1"/>
<path d="M16.1372 121.538C21.7763 119.954 27.4966 120.976 32.1281 123.889C29.5117 128.847 25.0427 132.731 19.4036 134.316C13.7646 135.9 8.04423 134.878 3.41272 131.965C6.04537 127.007 10.4981 123.123 16.1372 121.538Z" fill="#E8E8F1"/>
<path d="M23.125 143.72C28.1791 140.653 33.9644 140.091 39.1647 141.658C37.8646 147.161 34.5007 152.119 29.4466 155.185C24.3926 158.252 18.6073 158.814 13.407 157.247C14.7233 151.744 18.071 146.786 23.125 143.72Z" fill="#E8E8F1"/>
<path d="M35.3457 163.261C39.4734 158.933 44.9175 156.821 50.329 156.906C50.4265 162.579 48.4114 168.286 44.2837 172.614C40.156 176.941 34.7119 179.054 29.3003 178.951C29.2028 173.278 31.2342 167.571 35.3619 163.244L35.3457 163.261Z" fill="#E8E8F1"/>
<path d="M51.9704 178.815C54.8955 173.517 59.6245 169.99 64.8736 168.627C66.3687 174.079 65.8324 180.144 62.9072 185.442C59.9821 190.741 55.2531 194.267 50.004 195.63C48.5089 190.178 49.0615 184.113 51.9704 178.815Z" fill="#E8E8F1"/>
<path d="M71.8616 189.327C73.3729 183.415 77.0781 178.73 81.8071 175.987C84.6023 180.842 85.5611 186.839 84.0497 192.751C82.5384 198.663 78.8332 203.348 74.1042 206.09C71.3253 201.235 70.3502 195.238 71.8616 189.327Z" fill="#E8E8F1"/>
<path d="M93.6865 194.08C93.6865 187.964 96.1079 182.427 99.9919 178.491C103.892 182.427 106.297 187.964 106.297 194.08C106.297 200.196 103.876 205.733 99.9919 209.668C96.1079 205.733 93.6865 200.196 93.6865 194.08Z" fill="#E8E8F1"/>
<path d="M115.934 192.751C114.423 186.839 115.398 180.842 118.177 175.987C122.906 178.73 126.611 183.415 128.122 189.327C129.634 195.238 128.659 201.235 125.88 206.09C121.151 203.331 117.445 198.663 115.934 192.751Z" fill="#E8E8F1"/>
<path d="M137.093 185.425C134.168 180.127 133.631 174.062 135.126 168.61C140.375 169.973 145.104 173.5 148.03 178.798C150.955 184.096 151.491 190.161 149.996 195.613C144.747 194.233 140.018 190.724 137.093 185.425Z" fill="#E8E8F1"/>
<path d="M155.733 172.614C151.605 168.287 149.59 162.579 149.671 156.906C155.082 156.804 160.527 158.916 164.654 163.244C168.782 167.571 170.797 173.278 170.7 178.951C165.288 179.054 159.844 176.924 155.716 172.597L155.733 172.614Z" fill="#E8E8F1"/>
<path d="M170.57 155.185C165.516 152.119 162.152 147.161 160.852 141.658C166.052 140.091 171.837 140.653 176.891 143.72C181.945 146.786 185.309 151.744 186.609 157.247C181.409 158.814 175.624 158.235 170.57 155.185Z" fill="#E8E8F1"/>
<path d="M180.596 134.316C174.957 132.731 170.488 128.847 167.872 123.889C172.503 120.959 178.224 119.954 183.863 121.538C189.502 123.123 193.971 127.007 196.587 131.965C191.956 134.878 186.235 135.9 180.596 134.316Z" fill="#E8E8F1"/>
<path d="M185.13 111.453C179.296 111.453 174.015 108.914 170.261 104.843C174.015 100.754 179.296 98.2324 185.13 98.2324C190.965 98.2324 196.246 100.771 200 104.843C196.246 108.914 190.965 111.453 185.13 111.453Z" fill="#E8E8F1"/>
<path d="M183.863 88.1298C178.224 89.7142 172.503 88.692 167.872 85.7787C170.488 80.8211 174.957 76.9368 180.596 75.3524C186.235 73.768 191.956 74.7902 196.587 77.7034C193.955 82.6611 189.502 86.5454 183.863 88.1298Z" fill="#E8E8F1"/>
<path d="M176.875 65.9482C171.821 69.0148 166.036 69.577 160.835 68.0097C162.135 62.5069 165.499 57.5493 170.553 54.4827C175.607 51.4161 181.393 50.8539 186.593 52.4213C185.277 57.9241 181.929 62.8817 176.875 65.9482Z" fill="#E8E8F1"/>
<path d="M164.654 46.4074C160.526 50.7347 155.082 52.8472 149.671 52.762C149.573 47.0889 151.588 41.3816 155.716 37.0544C159.844 32.7271 165.288 30.6146 170.7 30.7168C170.797 36.3899 168.766 42.0972 164.638 46.4244L164.654 46.4074Z" fill="#E8E8F1"/>
<path d="M148.03 30.8531C145.104 36.1515 140.375 39.678 135.126 41.0409C133.631 35.5892 134.168 29.5243 137.093 24.2259C140.018 18.9276 144.747 15.401 149.996 14.0381C151.491 19.4898 150.939 25.5548 148.03 30.8531Z" fill="#E8E8F1"/>
<path d="M128.122 20.3415C126.611 26.2532 122.906 30.9382 118.177 33.6811C115.381 28.8257 114.423 22.8289 115.934 16.9172C117.445 11.0055 121.151 6.32051 125.88 3.57764C128.658 8.43304 129.634 14.4299 128.122 20.3415Z" fill="#E8E8F1"/>
<path d="M106.313 15.5884C106.313 21.7045 103.892 27.2413 100.008 31.1768C96.1079 27.2413 93.7028 21.7045 93.7028 15.5884C93.7028 9.47229 96.1241 3.93543 100.008 0C103.892 3.93543 106.313 9.47229 106.313 15.5884Z" fill="#E8E8F1"/>
</g>
</g>
<defs>
<clipPath id="clip0_1_4">
<rect width="200" height="210" fill="white"/>
</clipPath>
</defs>
</svg>
