<svg width="199" height="200" viewBox="0 0 199 200" fill="none" xmlns="http://www.w3.org/2000/svg">
<g clip-path="url(#clip0_1_53)">
<mask id="mask0_1_53" style="mask-type:luminance" maskUnits="userSpaceOnUse" x="0" y="0" width="199" height="200">
<path d="M199 0H0V200H199V0Z" fill="white"/>
</mask>
<g mask="url(#mask0_1_53)">
<path d="M105.054 0H93.978V29.7717H105.054V0Z" fill="white" fill-opacity="0.3"/>
<path d="M79.1003 1.95575L68.4015 4.83689L76.0684 33.5941L86.7672 30.713L79.1003 1.95575Z" fill="white" fill-opacity="0.3"/>
<path d="M54.5555 10.597L44.9633 16.1629L59.7747 41.9459L69.3669 36.38L54.5555 10.597Z" fill="white" fill-opacity="0.3"/>
<path d="M33.0661 25.3359L25.234 33.2073L46.1805 54.2591L54.0126 46.3877L33.0661 25.3359Z" fill="white" fill-opacity="0.3"/>
<path d="M16.1172 45.1568L10.5791 54.7973L36.2332 69.6831L41.7713 60.0427L16.1172 45.1568Z" fill="white" fill-opacity="0.3"/>
<path d="M4.82963 68.7323L1.96289 79.4849L30.5763 87.1903L33.4431 76.4378L4.82963 68.7323Z" fill="white" fill-opacity="0.3"/>
<path d="M0 94.4178V105.55H29.6228V94.4178H0Z" fill="white" fill-opacity="0.3"/>
<path d="M1.94781 120.482L4.81455 131.234L33.428 123.529L30.5613 112.776L1.94781 120.482Z" fill="white" fill-opacity="0.3"/>
<path d="M10.5506 145.147L16.0887 154.787L41.7429 139.901L36.2047 130.261L10.5506 145.147Z" fill="white" fill-opacity="0.3"/>
<path d="M25.2132 166.77L33.0453 174.642L53.9918 153.59L46.1597 145.719L25.2132 166.77Z" fill="white" fill-opacity="0.3"/>
<path d="M44.9482 183.82L54.5405 189.385L69.3519 163.602L59.7597 158.036L44.9482 183.82Z" fill="white" fill-opacity="0.3"/>
<path d="M68.3686 195.133L79.0674 198.015L86.7343 169.257L76.0355 166.376L68.3686 195.133Z" fill="white" fill-opacity="0.3"/>
<path d="M93.9458 200H105.022V170.228H93.9458V200Z" fill="white" fill-opacity="0.3"/>
<path d="M119.873 198.031L130.572 195.15L122.905 166.393L112.206 169.274L119.873 198.031Z" fill="white" fill-opacity="0.3"/>
<path d="M144.444 189.396L154.037 183.83L139.225 158.047L129.633 163.613L144.444 189.396Z" fill="white" fill-opacity="0.3"/>
<path d="M165.921 174.662L173.753 166.791L152.807 145.739L144.975 153.61L165.921 174.662Z" fill="white" fill-opacity="0.3"/>
<path d="M182.889 154.847L188.427 145.206L162.773 130.32L157.235 139.961L182.889 154.847Z" fill="white" fill-opacity="0.3"/>
<path d="M194.166 131.269L197.032 120.516L168.419 112.811L165.552 123.563L194.166 131.269Z" fill="white" fill-opacity="0.3"/>
<path d="M198.984 105.582V94.4503H169.361V105.582H198.984Z" fill="white" fill-opacity="0.3"/>
<path d="M197.047 79.5195L194.18 68.7669L165.567 76.4724L168.434 87.225L197.047 79.5195Z" fill="white" fill-opacity="0.3"/>
<path d="M188.449 54.8445L182.911 45.204L157.257 60.0899L162.795 69.7304L188.449 54.8445Z" fill="white" fill-opacity="0.3"/>
<path d="M173.777 33.2315L165.945 25.36L144.998 46.4118L152.83 54.2832L173.777 33.2315Z" fill="white" fill-opacity="0.3"/>
<path d="M154.059 16.1851L144.467 10.6191L129.656 36.4022L139.248 41.9681L154.059 16.1851Z" fill="white" fill-opacity="0.3"/>
<path d="M130.62 4.86564L119.921 1.9845L112.254 30.7417L122.953 33.6229L130.62 4.86564Z" fill="white" fill-opacity="0.3"/>
</g>
</g>
<defs>
<clipPath id="clip0_1_53">
<rect width="199" height="200" fill="white"/>
</clipPath>
</defs>
</svg>
