<svg width="198" height="200" viewBox="0 0 198 200" fill="none" xmlns="http://www.w3.org/2000/svg">
<g clip-path="url(#clip0_1_47)">
<mask id="mask0_1_47" style="mask-type:luminance" maskUnits="userSpaceOnUse" x="0" y="0" width="198" height="200">
<path d="M198 0H0V200H198V0Z" fill="white"/>
</mask>
<g mask="url(#mask0_1_47)">
<path d="M51.4668 163.14L36.5046 178.255C51.0163 190.119 68.9066 197.92 88.5023 200V178.645C74.7145 176.776 62.053 171.266 51.4829 163.14H51.4668ZM21.1723 110.726H0.0321768C2.10758 130.522 9.87828 148.61 21.655 163.286L36.6172 148.172C28.5087 137.494 23.0386 124.687 21.1723 110.743V110.726ZM36.3598 21.8593L51.322 36.9738C61.9243 28.7665 74.6341 23.2244 88.4862 21.3554V0C68.8423 2.06403 50.9037 9.93011 36.3437 21.8593H36.3598ZM0 89.5336H21.1402C22.9582 75.5566 28.4282 62.7011 36.4885 51.9909L21.5263 36.8763C9.76566 51.5521 2.02714 69.6896 0 89.5336ZM176.458 36.8763L161.495 51.9909C169.588 62.7011 175.026 75.5404 176.86 89.5173H198C195.973 69.6896 188.234 51.5683 176.458 36.8601V36.8763ZM109.482 0V21.3554C123.334 23.2244 136.06 28.7827 146.662 36.9738L161.624 21.8593C147.096 9.93011 129.142 2.06403 109.482 0ZM146.517 163.14C135.947 171.282 123.269 176.776 109.482 178.645V200C129.061 197.936 146.968 190.119 161.495 178.255L146.533 163.14H146.517ZM176.828 110.726C174.961 124.671 169.459 137.461 161.367 148.139L176.345 163.254C188.122 148.594 195.876 130.522 197.968 110.71H176.828V110.726Z" fill="white" fill-opacity="0.3"/>
</g>
</g>
<defs>
<clipPath id="clip0_1_47">
<rect width="198" height="200" fill="white"/>
</clipPath>
</defs>
</svg>
